<svg xmlns="http://www.w3.org/2000/svg" width="680" height="620" viewBox="0 0 680 620" font-family="system-ui, -apple-system, Segoe UI, Roboto, sans-serif">
<defs>
<marker id="arrow" viewBox="0 0 10 10" refX="8" refY="5" markerWidth="6" markerHeight="6" orient="auto-start-reverse"><path d="M2 1L8 5L2 9" fill="none" stroke="#888780" stroke-width="1.5" stroke-linecap="round" stroke-linejoin="round"/></marker>
</defs>
<style>
.t{font-size:14px;font-weight:500;}
.s{font-size:12px;fill:#5f5e5a;}
.arr{stroke:#888780;stroke-width:1.5;fill:none;}
</style>

<rect x="200" y="30" width="280" height="56" rx="8" fill="#EEEDFE" stroke="#534AB7" stroke-width="0.5"/>
<text class="t" x="340" y="54" text-anchor="middle" fill="#3C3489">Metis</text>
<text class="s" x="340" y="72" text-anchor="middle" fill="#534AB7">Multimodal reasoning, world model</text>

<line x1="340" y1="86" x2="340" y2="118" class="arr" marker-end="url(#arrow)"/>

<rect x="180" y="120" width="320" height="56" rx="8" fill="#E1F5EE" stroke="#0F6E56" stroke-width="0.5"/>
<text class="t" x="340" y="144" text-anchor="middle" fill="#085041">Orchestrator</text>
<text class="s" x="340" y="162" text-anchor="middle" fill="#0F6E56">Plan, schedule, arbitrate, safety gate</text>

<line x1="240" y1="176" x2="150" y2="248" class="arr" marker-end="url(#arrow)"/>
<line x1="340" y1="176" x2="340" y2="248" class="arr" marker-end="url(#arrow)"/>
<line x1="440" y1="176" x2="530" y2="248" class="arr" marker-end="url(#arrow)"/>

<rect x="55" y="250" width="180" height="56" rx="8" fill="#E6F1FB" stroke="#185FA5" stroke-width="0.5"/>
<text class="t" x="145" y="274" text-anchor="middle" fill="#0C447C">Software agents</text>
<text class="s" x="145" y="292" text-anchor="middle" fill="#185FA5">Priority 1 · MCP</text>

<rect x="250" y="250" width="180" height="56" rx="8" fill="#E6F1FB" stroke="#185FA5" stroke-width="0.5"/>
<text class="t" x="340" y="274" text-anchor="middle" fill="#0C447C">IoT agents</text>
<text class="s" x="340" y="292" text-anchor="middle" fill="#185FA5">Priority 2 · MQTT</text>

<rect x="445" y="250" width="180" height="56" rx="8" fill="#E6F1FB" stroke="#185FA5" stroke-width="0.5"/>
<text class="t" x="535" y="274" text-anchor="middle" fill="#0C447C">Robotics agents</text>
<text class="s" x="535" y="292" text-anchor="middle" fill="#185FA5">Priority 3 · ROS 2</text>

<line x1="145" y1="306" x2="300" y2="398" class="arr" marker-end="url(#arrow)"/>
<line x1="340" y1="306" x2="340" y2="398" class="arr" marker-end="url(#arrow)"/>
<line x1="535" y1="306" x2="380" y2="398" class="arr" marker-end="url(#arrow)"/>

<rect x="140" y="400" width="400" height="180" rx="20" fill="#F1EFE8" stroke="#5F5E5A" stroke-width="0.5"/>
<text class="t" x="340" y="424" text-anchor="middle" fill="#2C2C2A">State store</text>
<text class="s" x="340" y="442" text-anchor="middle" fill="#444441">Memory and audit at the edge</text>

<rect x="165" y="465" width="160" height="90" rx="10" fill="#FAEEDA" stroke="#854F0B" stroke-width="0.5"/>
<text class="t" x="245" y="499" text-anchor="middle" fill="#633806">Episodic log</text>
<text class="s" x="245" y="517" text-anchor="middle" fill="#854F0B">Append-only events</text>

<rect x="355" y="465" width="160" height="90" rx="10" fill="#FAECE7" stroke="#993C1D" stroke-width="0.5"/>
<text class="t" x="435" y="499" text-anchor="middle" fill="#712B13">Semantic graph</text>
<text class="s" x="435" y="517" text-anchor="middle" fill="#993C1D">Facts, capabilities</text>
</svg>